<mxfile host="app.diagrams.net" modified="2023-08-06T15:39:20.017Z" agent="Mozilla/5.0 (Windows NT 10.0; Win64; x64) AppleWebKit/537.36 (KHTML, like Gecko) Chrome/115.0.0.0 Safari/537.36 Edg/115.0.1901.188" version="21.6.6" etag="2JMStiQcPlfgY2qx2eQz" type="github">
  <diagram name="Trang-1" id="Zqj0E-z18DZJ8MdYpQIx">
    <mxGraphModel>
      <root>
        <mxCell id="0" />
        <mxCell id="1" parent="0" />
      </root>
    </mxGraphModel>
  </diagram>
</mxfile>
